<svg xmlns="http://www.w3.org/2000/svg" xmlns:xlink="http://www.w3.org/1999/xlink" version="1.1" x="0px" y="0px" viewBox="0 0 100 125" style="enable-background:new 0 0 100 100;" xml:space="preserve"><g><path d="M84,5H16C9.9,5,5,9.6,5,15.3V67c0,5.7,4.9,10.3,11,10.3h7.2v15.3c0,0.9,0.6,1.8,1.5,2.2c0.4,0.2,0.7,0.2,1.1,0.2   c0.6,0,1.2-0.2,1.7-0.5l22.7-17.2H84c6.1,0,11-4.6,11-10.3V15.3C95,9.6,90.1,5,84,5z M89.9,66.9c0,3-2.6,5.4-5.8,5.4H49.2   c-0.6,0-1.2,0.2-1.7,0.5L28.4,87.3V74.7c0-1.3-1.2-2.4-2.6-2.4h-9.8c-3.2,0-5.8-2.4-5.8-5.4V15.5c0-3,2.6-5.4,5.8-5.4h68.2   c3.2,0,5.8,2.4,5.8,5.4V66.9z"/><path d="M32.8,45.8l-3.6-15.5h-6V50h3.8V36.7c0-0.4,0-0.9,0-1.6c0-0.7,0-1.2,0-1.6L30.8,50h4l3.7-16.6c0,0.4,0,0.9,0,1.6   c0,0.7,0,1.2,0,1.6V50h3.8V30.3h-5.9L32.8,45.8z"/><polygon points="57.4,30.3 53.5,38.9 49.4,30.3 44.5,30.3 51.4,42.6 51.4,50 55.5,50 55.5,42.6 62.1,30.3  "/><path d="M67.6,30.3l-7,19.7h4.3l1.3-4.1h7.3l1.3,4.1h4.5l-7-19.7H67.6z M67.3,42.5l2.6-7.8l2.5,7.8H67.3z"/></g></svg>