<svg id="Capa_1" enable-background="new 0 0 512 512" height="512" viewBox="0 0 512 512" width="512" xmlns="http://www.w3.org/2000/svg"><g><path d="m241 127.155h30v31.801h-30z" transform="matrix(.707 -.707 .707 .707 -26.177 222.91)"/><path d="m433.23 194.482c-25.514-44.997-39-97.045-39-150.515v-43.967h-30v43.968c0 56.266 13.664 111.162 39.559 159.241-97.092 25.092-198.578 25.164-295.693.214 25.969-48.128 39.673-103.104 39.673-159.455v-43.968h-30v43.968c0 53.472-13.486 105.519-39 150.515-28.257 49.834-39.604 106.233-32.814 163.103 1.085 9.091 9.58 104.532 13.92 154.415h29.887c-.514-5.909-15.713-176.894-15.718-186.298 10.703-.801 27.62-1.022 46.57 2.647 40.869 7.913 71.065 29.712 89.81 64.801v118.849h30v-107.812h31.234v107.812h30v-119.007c18.599-34.713 48.446-56.393 88.773-64.455 19.187-3.837 36.574-3.616 47.523-2.807-.006 9.394-15.203 180.36-15.717 186.269h29.887c4.34-49.883 12.834-145.324 13.92-154.415 6.791-56.869-4.557-113.27-32.814-163.103zm-47.547 104.415c-47.618 9.22-84.736 35.173-107.893 75.29h-43.581c-23.157-40.117-60.273-66.07-107.892-75.29-19.726-3.819-37.6-4.046-50.338-3.363 2.87-22.272 8.927-44.03 18.087-64.775 52.958 14.22 107.211 21.343 161.467 21.343 54.542 0 109.082-7.191 162.305-21.562 9.215 20.81 15.302 42.643 18.182 64.994-12.737-.684-30.611-.457-50.337 3.363z"/></g></svg>