<svg id="Layer_1" enable-background="new 0 0 496.004 496.004" height="512" viewBox="0 0 496.004 496.004" width="512" xmlns="http://www.w3.org/2000/svg"><g><path d="m447.238 109.125c.086-7.081-4.493-13.376-11.257-15.475-14.764-4.582-90.43-28.065-105.059-32.604l-11.043-48.591c-1.656-7.286-8.131-12.455-15.602-12.455h-112.565c-7.471 0-13.946 5.169-15.603 12.454l-11.043 48.591c-3.92 1.217-101.195 31.406-105.058 32.605-8.31 2.579-13.035 11.324-10.639 19.688l27.963 97.597c-9.696 31.052-4.703 64.119 14.199 92.392 11.445 17.166 32.745 90.906 8.151 172.032-3.123 10.3 4.618 20.646 15.317 20.646 6.864 0 13.211-4.453 15.306-11.362 10.792-35.599 14.817-72.647 11.884-109.642h211.609c-2.929 36.922 1.073 73.981 11.884 109.642 2.563 8.453 11.491 13.234 19.953 10.67 8.457-2.564 13.234-11.498 10.67-19.954-12.357-40.762-14.105-84.093-8.424-116.307 3.276-18.651 7.354-41.862 16.515-55.636 19.922-29.953 23.545-62.76 14.255-92.496 30.693-107.914 28.547-98.593 28.587-101.795zm-59.524 3.051 23.746 7.369c-1.037 3.613-4.431 15.379-14.719 51.474-11.046-16.873-9.027-30.396-9.027-58.843zm-183.23-80.176h87.021c11.155 49.083 10.201 48.436 14.409 52.754v24.836c0 51.655-62.678 77.158-98.872 40.96-10.941-10.949-16.968-25.496-16.968-40.96v-24.836c4.186-4.294 3.235-3.58 14.41-52.754zm-96.209 80.176c0 28.33 2.052 41.98-9.072 58.913l-14.76-51.517zm269.476 173.518c-10.851 16.316-15.909 37.973-19.503 57.306h-220.337c-3.239-17.196-9.372-41.853-19.766-57.442-19.831-29.665-17.563-64.209 3.469-90.885 12.034-15.246 18.661-34.474 18.661-54.143v-38.285l17.8-5.524c0 14.671-2.713 47.384 26.336 76.452 56.196 56.204 153.504 16.595 153.504-63.583v-12.869l17.8 5.524v38.285c0 19.669 6.627 38.897 18.655 54.136 20.457 25.946 23.832 60.28 3.381 91.028zm-113.756 148.306v12c0 8.836-7.163 16-16 16s-16-7.164-16-16v-12c0-8.836 7.163-16 16-16s16 7.164 16 16z"/></g></svg>